<?xml version="1.0" encoding="utf-8"?>
<!-- Generator: Adobe Illustrator 25.2.1, SVG Export Plug-In . SVG Version: 6.00 Build 0)  -->
<svg version="1.1" id="Layer_1" xmlns="http://www.w3.org/2000/svg" xmlns:xlink="http://www.w3.org/1999/xlink" x="0px" y="0px"
	 viewBox="0 0 3136.11 430.54" style="enable-background:new 0 0 3136.11 430.54;" xml:space="preserve">
<style type="text/css">
	.st0{fill:#045081;}
	.st1{fill:#545454;}
</style>
<g>
	<g>
		<g>
			<path class="st0" d="M203.76,326.61v37.26H20.45V96.62h179.92v37.26H62.61v76.03h119.32v35H62.61v81.68H203.76z"/>
			<path class="st0" d="M247.42,363.87V96.62h42.16v229.98h143.41v37.26H247.42z"/>
			<path class="st0" d="M467.23,363.87V96.62h94.85c28.85,0,52.94,5.96,72.27,17.88c19.32,11.92,33.81,27.98,43.47,48.18
				c9.66,20.2,14.49,42.6,14.49,67.19c0,27.1-5.33,50.69-16,70.76c-10.67,20.08-25.78,35.64-45.35,46.68
				c-19.57,11.04-42.53,16.56-68.88,16.56H467.23z M649.41,229.87c0-18.82-3.45-35.44-10.35-49.87
				c-6.9-14.43-16.81-25.72-29.73-33.88c-12.93-8.15-28.67-12.23-47.24-12.23h-52.69v192.72h52.69c18.82,0,34.69-4.26,47.61-12.8
				c12.92-8.53,22.77-20.07,29.55-34.63C646.02,264.63,649.41,248.19,649.41,229.87z"/>
			<path class="st0" d="M920.04,326.61v37.26H736.73V96.62h179.92v37.26H778.89v76.03h119.32v35H778.89v81.68H920.04z"/>
			<path class="st0" d="M963.7,363.87V96.62H1080c12.05,0,23.08,2.51,33.12,7.53c10.03,5.02,18.75,11.67,26.16,19.95
				c7.4,8.28,13.17,17.57,17.31,27.85c4.14,10.29,6.21,20.83,6.21,31.62c0,11.8-2.13,23.09-6.4,33.88
				c-4.27,10.79-10.35,20.08-18.25,27.85c-7.9,7.78-17.13,13.43-27.67,16.94l62.86,101.63h-47.43l-57.97-92.97h-62.1v92.97H963.7z
				 M1005.86,233.63h73.77c7.78,0,14.68-2.26,20.7-6.78c6.02-4.52,10.79-10.6,14.3-18.25c3.51-7.65,5.27-16,5.27-25.03
				c0-9.28-2.01-17.63-6.02-25.03c-4.02-7.4-9.22-13.36-15.62-17.88c-6.4-4.52-13.36-6.78-20.89-6.78h-71.52V233.63z"/>
			<path class="st1" d="M1198.19,227.99c0-16.31,2.82-32.31,8.47-47.99c5.65-15.68,13.86-29.98,24.65-42.91
				c10.79-12.92,24.09-23.21,39.9-30.86c15.81-7.65,33.74-11.48,53.82-11.48c23.84,0,44.22,5.46,61.16,16.37
				c16.94,10.92,29.42,24.91,37.45,41.97l-20.7,12.8c-5.77-11.79-13.05-21.14-21.83-28.04c-8.79-6.9-18.13-11.86-28.04-14.87
				c-9.92-3.01-19.76-4.52-29.55-4.52c-16.06,0-30.24,3.2-42.53,9.6c-12.3,6.4-22.65,14.93-31.06,25.59
				c-8.41,10.67-14.74,22.59-19.01,35.76c-4.27,13.17-6.4,26.54-6.4,40.09c0,14.81,2.51,28.98,7.53,42.53
				c5.01,13.55,12.04,25.54,21.08,35.95c9.03,10.42,19.63,18.7,31.81,24.84c12.17,6.15,25.41,9.22,39.71,9.22
				c10.03,0,20.33-1.75,30.87-5.27c10.54-3.51,20.38-8.9,29.55-16.18c9.16-7.27,16.5-16.69,22.02-28.23l21.83,11.29
				c-5.52,13.31-14.06,24.6-25.59,33.88c-11.55,9.29-24.41,16.31-38.58,21.08c-14.18,4.77-28.04,7.15-41.59,7.15
				c-18.32,0-35.14-3.95-50.44-11.86c-15.31-7.9-28.55-18.44-39.71-31.62c-11.17-13.18-19.76-27.98-25.78-44.42
				C1201.2,261.43,1198.19,244.8,1198.19,227.99z"/>
			<path class="st1" d="M1966.78,365.75c-21.08,0-38.9-3.76-53.45-11.29c-14.56-7.53-26.1-17.63-34.63-30.3
				c-8.53-12.67-14.74-27.04-18.63-43.1c-3.89-16.06-5.84-32.62-5.84-49.68V96.62h25.97v134.75c0,13.8,1.44,27.35,4.33,40.65
				c2.88,13.3,7.59,25.22,14.12,35.76c6.52,10.54,15.3,18.88,26.35,25.03c11.04,6.15,24.84,9.22,41.4,9.22
				c17.06,0,31.18-3.2,42.35-9.6c11.16-6.4,19.95-14.87,26.35-25.41c6.4-10.54,10.97-22.4,13.74-35.57
				c2.76-13.18,4.14-26.54,4.14-40.09V96.62h26.35v134.75c0,17.82-2.01,34.88-6.02,51.19c-4.02,16.31-10.48,30.62-19.38,42.91
				c-8.91,12.3-20.52,22.08-34.82,29.36C2004.79,362.12,1987.35,365.75,1966.78,365.75z"/>
			<path class="st1" d="M2168.52,145.18v218.69h-26.35V96.62H2164l175.4,222.83V97h26.35v266.87h-24.46L2168.52,145.18z"/>
			<path class="st1" d="M2588.95,146.68c-3.76-4.26-8.16-8.09-13.18-11.48c-5.02-3.39-10.67-6.33-16.94-8.85
				c-6.28-2.5-12.99-4.52-20.14-6.02c-7.15-1.51-14.74-2.26-22.77-2.26c-23.34,0-40.46,4.45-51.38,13.34
				c-10.92,8.89-16.37,20.99-16.37,36.26c0,10.53,2.57,18.8,7.72,24.81c5.14,6.01,13.23,10.9,24.28,14.66
				c11.04,3.76,25.09,7.65,42.16,11.65c19.06,4.01,35.51,8.77,49.31,14.28c13.8,5.52,24.47,12.97,31.99,22.37
				c7.53,9.4,11.29,22.11,11.29,38.14c0,12.28-2.39,22.93-7.15,31.95c-4.77,9.02-11.42,16.54-19.95,22.55
				c-8.54,6.01-18.7,10.46-30.49,13.34c-11.8,2.88-24.72,4.32-38.77,4.32c-13.8,0-27.04-1.45-39.71-4.33
				c-12.68-2.88-24.66-7.15-35.95-12.8c-11.29-5.65-21.83-12.86-31.62-21.64l13.18-21.45c4.76,5.02,10.47,9.73,17.13,14.12
				c6.65,4.39,14.05,8.35,22.21,11.86c8.15,3.52,16.94,6.21,26.35,8.09c9.41,1.88,19.13,2.82,29.17,2.82
				c21.33,0,37.95-3.88,49.87-11.65c11.91-7.76,17.88-19.28,17.88-34.56c0-11.02-3.01-19.85-9.03-26.49
				c-6.02-6.64-15.06-12.09-27.1-16.35c-12.04-4.26-26.85-8.4-44.41-12.41c-18.57-4.26-34.25-9.02-47.05-14.28
				c-12.8-5.26-22.39-12.22-28.79-20.86c-6.4-8.64-9.6-20.11-9.6-34.39c0-16.54,4.08-30.51,12.23-41.91
				c8.15-11.4,19.39-20.04,33.69-25.94c14.3-5.89,30.74-8.83,49.31-8.83c11.79,0,22.77,1.19,32.93,3.58
				c10.16,2.39,19.57,5.83,28.23,10.35c8.66,4.52,16.75,10.16,24.28,16.94L2588.95,146.68z"/>
			<path class="st1" d="M2840.76,340.53v23.34h-179.54V96.62h176.15v23.34h-149.81v96.36h130.61v22.21h-130.61v102.01H2840.76z"/>
			<path class="st1" d="M2890.44,363.87V96.62h26.35v243.91h154.32v23.34H2890.44z"/>
		</g>
		<g>
			<path class="st1" d="M1796.2,255.69c10.73,23.22,18.34,47.52,22.95,71.84c3.55-43.65-4.32-91.98-24.66-135.98
				c-43.29-93.64-126.65-132.24-186.2-86.21c-25.58,19.77-42.6,51.96-50.26,89.65c8.61-13.83,19.02-25.75,31.17-35.14
				C1655.4,108.68,1748.08,151.59,1796.2,255.69z"/>
			<path class="st0" d="M1500.71,121.58c0.01-36.03,4.61-72.21,12.99-107.14c-29.97,57.71-48.26,126.59-48.28,194.87
				c-0.05,145.31,82.6,232.88,184.62,195.61c43.83-16.01,84.09-52.48,115.78-100.37c-18.94,15.12-39.03,26.89-59.85,34.5
				C1592.55,380.48,1500.65,283.12,1500.71,121.58z"/>
		</g>
	</g>
	<g>
		<path class="st1" d="M3099.55,363.87c-1.75,0-3.35-0.29-4.81-0.88c-1.46-0.59-2.73-1.41-3.81-2.48c-1.08-1.07-1.92-2.32-2.52-3.75
			c-0.6-1.44-0.9-3-0.9-4.7c0-1.68,0.3-3.23,0.9-4.67c0.6-1.44,1.44-2.68,2.52-3.74c1.08-1.06,2.35-1.88,3.81-2.46
			c1.46-0.59,3.07-0.88,4.81-0.88c1.72,0,3.32,0.29,4.78,0.88c1.46,0.59,2.74,1.41,3.83,2.46c1.09,1.06,1.94,2.3,2.54,3.74
			c0.6,1.44,0.9,2.99,0.9,4.67c0,1.7-0.3,3.27-0.9,4.7c-0.6,1.44-1.45,2.69-2.54,3.75c-1.09,1.07-2.37,1.89-3.83,2.48
			C3102.87,363.58,3101.27,363.87,3099.55,363.87z M3099.55,362.69c2.01,0,3.82-0.45,5.45-1.34c1.63-0.89,2.91-2.14,3.86-3.74
			c0.95-1.6,1.43-3.44,1.43-5.53c0-1.5-0.27-2.89-0.8-4.18s-1.29-2.4-2.26-3.36c-0.97-0.96-2.11-1.7-3.41-2.24
			c-1.3-0.53-2.72-0.8-4.27-0.8c-1.55,0-2.98,0.27-4.27,0.8c-1.3,0.53-2.43,1.28-3.4,2.24c-0.97,0.96-1.72,2.07-2.26,3.35
			c-0.53,1.27-0.8,2.66-0.8,4.16c0,1.5,0.27,2.9,0.8,4.19c0.54,1.29,1.28,2.42,2.24,3.38c0.96,0.96,2.1,1.71,3.4,2.25
			C3096.57,362.42,3098,362.69,3099.55,362.69z M3094.54,344.72h6.25c0.87,0,1.64,0.23,2.29,0.68c0.65,0.46,1.17,1.04,1.56,1.76
			c0.38,0.72,0.57,1.46,0.57,2.22c0,0.7-0.14,1.35-0.43,1.97c-0.28,0.62-0.68,1.15-1.18,1.58c-0.5,0.43-1.09,0.72-1.77,0.85
			l3.64,5.7h-1.9l-3.47-5.47h-3.83v5.47h-1.74V344.72z M3100.79,352.51c0.87,0,1.54-0.3,2.01-0.91c0.47-0.61,0.7-1.35,0.7-2.22
			c0-0.91-0.27-1.66-0.8-2.23c-0.54-0.58-1.22-0.86-2.05-0.86h-4.39v6.22H3100.79z"/>
	</g>
</g>
</svg>
